<?xml version="1.0" encoding="UTF-8" standalone="no"?>
<!DOCTYPE svg  PUBLIC '-//W3C//DTD SVG 1.1//EN'  'http://www.w3.org/Graphics/SVG/1.1/DTD/svg11.dtd'>
<svg xmlns="http://www.w3.org/2000/svg" xml:space="preserve" version="1.1" y="0px" x="0px" xmlns:xlink="http://www.w3.org/1999/xlink" viewBox="0 0 500 500" enable-background="new 0 0 500 500">
<g id="white_filing">
	<path d="m156.7 135.5c-3.3-7.4-6-15.1-7.9-23-0.7-3-1.4-6.1-0.7-9.1 1-5.1 5.3-8.8 9.3-12 7.1-5.9 14.1-13.4 20.9-19.7s14.9-11.8 24.1-12.6c9.9-0.9 19.5 3.7 29.4 3.9 4.6 0.1 9.2-1.9 13.6-3.3 20.3-6.6 42-6.9 63.3-7.2 2.7 0 5.7 2.2 8.3 1.4 2.4-0.8 3.8-3.3 5.3-5.4 6-8.2 17.5-11.9 27.1-8.5 8.2 2.8 16.2 7.1 24.2 10.3 4.9 2 9.7 6.3 14.2 9.1 2.7 1.7 5.5 3.5 6.6 6.5 2.9 7.9 3.3 16.7 4.8 25 0.2 1.2 0.5 2.5 0.1 3.7-0.3 1.2-1.4 2.3-2.6 2.3-2.2-0.1-3-3.1-5-3.8-5.9 6.5-12.3 13.3-18.3 19.8-1.2 1.4-2.5 2.8-3 4.6-0.4 1.8 0.1 3.8 0.6 5.6 2.3 7.7 4.5 15.5 6.8 23.2 2 6.8 1.6 14.9-0.1 21.8s-4.4 13.5-5.6 20.5c-1.6 8.8-0.8 17.8-0.9 26.7-0.1 17.8-3.4 35.5-9.8 52.1-2.8 7.3-2.1 15.3-3.3 23.1s-3.5 15.7-8.8 21.5c-3 3.2-3.2 9.2-4.4 13.4-2 6.9-3.5 14.4-5.2 21.4-3.7 14.9-0.9 31.8 6.4 45.3 3.4 6.3 11.4 9.2 15.7 14.9 2.8 3.8 5.2 8.1 5 12.8-0.3 5.4-4.2 10.3-9.2 12.6-4.9 2.3-10.7 2.3-16 1.1s-10.3-3.6-15.2-5.9c-15.1-7.2-25.8-22-31.6-37.6-5.8-15.7-6.2-33.2-1.1-49.2-6.9 4.5-16.9 5.9-25.1 5.1s-16.1-3.4-23.8-6.1c-14.7 6.4-32.3 7.3-47.5 2.5-2.4-0.8-5-2.7-7.5-2.2-0.2 25.9-6.7 51.7-18.7 74.5-3.3 6.3-5.7 14.2-11.9 17.7-6.2 3.4-13.5 4.5-20.6 5.5-7.7 1.1-15.4 2.2-23.1 3.2-3.8 0.5-8.1 0.9-11-1.6-1.9-1.6-2.7-4.2-3.1-6.6-2.2-11.6 2-24.2 10.6-32.3 3.6-3.3 7.8-5.9 11.4-9.1s6.8-7.4 7.3-12.3c0.5-5.3 1.2-11.7 3.5-16.5 3.4-7.2 2.8-16 3.9-23.9-1.6 0.2-2.7-1.6-3.9-2.7-1.1-1.1-1.9-2.5-2.7-3.9-2.4-4.6-4.3-9.5-5.7-14.5-5.1-18.8-7.3-38.5-1.3-57 3.7-11.4 11.2-22.4 21.1-29.4 1.2-8.3 3-16.6 4.1-24.9 1.2-8.1 2.4-16.2 7.3-22.8 2.9-3.9 6.6-7.6 7.4-12.3 2.1-11.4 13.1-21.2 23.3-26.5-0.7-2-0.6-4.3-1.6-6.1-1.1-2-2.3-3.9-4.1-5.2s-4.2-2-6.3-1.3c-4.6-2.9-10.2-6-14.8-8.8 0.4 4.3-1.9 8.5-4.2 12.2z" fill="#fff"/>
</g>
<g id="ponk_spots">
	<g fill="#E9B0BE">
		<path d="m329.2 192.5c2.1 1.1 3.6 2.8 4.1 5.1 0.6 2.8 2.1 5 4.1 7 2.6 2.6 4.1 5.7 5.2 9.1 0.5 1.6 1.1 3.2 2.1 4.5 3.7 4.8 5.1 10.4 6.5 16 0.4 1.7 0.9 3.5 1.4 5.2 1.5 4.6 0.3 8.5-3.8 11.2-3 2-7.7 1.4-10.8-1.3-0.9-0.8-1.8-1.8-2.4-2.9-1.2-2.2-0.7-3.8 1.5-4.9 1.8-0.9 2-2.2 1.5-3.8-0.4-1.3-0.9-2.7-1.7-3.8-2.4-3.3-4.3-7-7.8-9.5-2.2-1.5-2.9-4.3-3.1-6.8-0.3-3-0.1-6.1-0.2-9.2-0.1-2.1-0.5-4.3-0.7-6.4-0.1-0.5-0.3-1-0.4-1.5-1.1-4.4-0.6-5.6 2.9-8.1 0.4 0.1 1 0.1 1.6 0.1z"/>
		<path d="m253.2 245.1c2-4.5 5.2-8.4 5.7-13.5 0.1-1.1 0-2.4-0.6-3.2-3-4.7-0.7-10.4 4.8-11.8 1.6-0.4 2.8 0.3 3.3 1.6 1.4 3.7 4.2 5.9 7.2 8.1 3.4 2.5 4 5.7 2 9.4-1.4 2.6-3.1 5-4.8 7.5-1.1 1.6-0.9 3.4-0.6 5 0.3 1.5 1.7 1.4 2.9 1.6 1.4 0.2 2.9 0.6 4 1.4 1.6 1.3 1.4 3.9-0.2 5.5-2.7 2.6-5.5 5.3-8.5 7.4-3.3 2.4-9.5 1.5-9.8-4.9-0.1-1-0.4-2.1-0.8-3-1.4-2.7-2.9-5.2-4.4-7.9-0.2-1.1-0.2-2.2-0.2-3.2z"/>
		<path d="m299.9 229.5c2.4 0.3 4.8 0.7 7.3 0.9 2.3 0.1 4.7 0.3 6.9-0.1 3.3-0.6 5.8 0.5 7.6 3.1 1.5 2.3 2.8 4.7 3.9 7.2 1 2 0.6 4.1-1.1 5.6-2.9 2.4-6.2 4.4-8.8 7.1-3.4 3.4-7.7 5-11.9 6.7-6.4 2.5-14.7 1.3-20-6.2-1.8-2.6-3.1-5.2-3-8.5 0.2-3.2 1.4-5.7 4-7.4 2.8-1.9 5.5-3.8 7.9-6.3 1.9-2.2 4.6-1.9 7.2-2.1z"/>
	</g>
</g>
<g id="broun_spots" fill="#7A5E3E">
	<path d="m331.2 147.6c-4.1-2.3-8.2-4.6-12.2-7-2.6-1.5-5.2-3-7.3-5.1-1.2-1.2-2.1-2.6-3.1-4-2.6-3.7-5.2-7.4-7.7-11-1-1.5-2.1-3.1-2.3-4.9-0.1-1.3 0.2-2.7 0.2-4.1-0.2-4.5-4.7-7.4-6.6-11.4-1-2.2-1.2-4.8-1.3-7.2-0.3-9.2 1-18.4 3.7-27.2 1.2-4 3.4-8.5 7-10.9 1.3-0.9 3-1.1 4.1-2.3 0.9-1 1.5-2.5 2.9-3.1 0.8-0.3 1.7-0.3 2.6-0.3 2.7 0 5.4-0.6 7.8-1.8 0.6-0.3 1.1-0.7 1.7-0.9 0.4-0.2 0.8-0.2 1.2-0.3 1.4-0.4 2.7-1.3 4-1.9l1.8-0.9c0.2-0.1 1.7-0.7 1.7-0.9 3.4-1.8 6.9-3.6 10.7-4 5.3-0.6 10.5 1.6 15.4 3.8 7.3 3.3 14.6 6.5 21.9 9.8 3.9 1.7 7.8 3.5 10.9 6.3 8.2 7.3 9.2 19.4 9.7 30.4 1.5 2.4 1.2 4.8 1 7.6-1.5 0.7-3.2-0.1-4.5-1.1-1.2-1.1-2.2-2.4-3.6-3.3-1.8 4-4.9 8-7.7 11.4-2.7 1.5-5 3.7-6.7 6.3-0.6 0.9-1.2 1.9-2.2 2.4-0.9 0.5-2 0.4-3 0.3 0.5 5.6 1.3 12.1 2.7 17.5 1.5 6 3.5 11.9 4.8 17.9 0.7 3.2 1.2 6.5 1 9.7-0.2 5.4-2.2 10.6-4.2 15.7-1.6 4.2-3.3 8.4-4.9 12.6-2.9 1.9-7.9-0.5-10-3.3-2-2.8-2.7-6.4-4.1-9.6-2.5-5.7-7-10.3-11.4-14.7-3.5-3.4-7-6.9-11.4-9.1-1.2-0.4-2.1 0-2.6-1.4z"/>
	<path d="m145.9 234.4c-1.1-1.5-3.3-1.7-4.9-0.9s-2.8 2.3-3.8 3.8c-3.9 5.7-7.2 12-9.6 18.5-6.3 17.2-6.1 37.4-3.2 55.5 1.1 6.4 3.2 12.5 5.1 18.8 0.8 2.7 2.2 5.8 4.9 6.2 2.5 0.4 4.8-2 5.3-4.5s-0.4-5.1-1.2-7.5c-3.9-11.3 0.9-25.5 1.4-37.4 0.4-10.5 2.9-21.3 5-31.6 1.4-7.1 5.2-14.9 1-20.9z"/>
</g>
<g id="grey_spots">
	<g fill="#3B3335">
		<path d="m316.3 240.7v2.3c-0.8 0.5-1.1-0.1-1.7-0.6-0.1 0.4-0.1 0.7-0.2 1.1-0.2-0.1-0.3-0.2-0.6-0.4-0.3 0.2-0.7 0.5-1.1 0.8-0.5-0.3-1-0.7-1.1-1.4-0.5-0.2-1-0.3-1.5-0.5-0.2 0.3-0.3 0.6-0.5 0.9-0.5-0.4-0.9-0.8-1.3-1.2-0.4 0.9-0.6 2.1-1.9 2.6v5.1h-0.7c-1 1-2 2-3.1 3.2-0.1 0.4-0.3 1.1-0.6 2-0.4-0.2-0.6-0.4-0.8-0.5-0.9 0.3-1.8 0.5-2.7 0.7-0.2-0.3-0.3-0.7-0.6-0.9-0.4-0.4-0.9-0.9-1.4-0.9-1.1-0.1-1.6-1.4-2.8-1.1-0.9-0.8-1.4-1.7-1.6-2.9v-0.9l-1.1-1.1v-3.5c-0.6 0.4-1.3 0.7-1.3 1-0.2 1.1-1.2 1.8-1.4 2.8s-0.8 1.8-1.2 2.7c-0.1 0.3-0.3 0.5-0.6 0.9 0-0.6-0.2-1-0.1-1.3 0.4-1.3 0.9-2.6 1.3-3.9 0.1-0.5 0.1-1 0.2-1.7-0.3-0.2-0.5-0.4-0.7-0.5 0.1-0.7 0.2-1.3 0.4-2.2-0.5 0.2-0.8 0.3-1.1 0.4v-1.5c-0.9-0.4-1.8-0.7-2.7-1-0.6 0.9-1 1.7-1.3 2.7 0.2 0.1 0.5 0.2 0.7 0.4s0.4 0.4 0.7 0.6c0.2-0.2 0.4-0.3 0.7-0.6v1.7l0.2 0.1c0.1 0 0.1-0.1 0.1-0.1 0.1-0.1 0.2-0.1 0.4-0.2 0 0.5 0.1 1 0 1.4-0.3 0.9-0.4 1.8-0.7 2.7-0.4 1-0.8 1.9-1.4 2.8-0.5 0.9-0.9 2-1.9 2.6-0.4 0.3-0.8 0.5-1.4 0.9-0.3-0.4-0.6-0.8-0.9-1.2l-0.6 0.3c-0.2-0.1-0.5-0.2-0.9-0.4v-1.9c-0.5 0.6-0.7 1-1.1 1.6-0.2-0.4-0.3-0.6-0.4-0.9-0.3 0.2-0.6 0.5-0.9 0.8-0.3-0.2-0.6-0.5-1.1-0.9-1.5 0.1-3.1 0.3-4.9 0.5l-0.6 0.6h-2.2c-0.1 0.3-0.2 0.5-0.3 0.7-0.3 0-0.5 0.1-0.9 0.1v1.5c-0.5 0.2-1 0.3-1.3 0.6-0.2 0.2-0.3 0.7-0.4 1.2-0.3-0.4-0.5-0.8-0.8-1.2-0.9 0.4-1.3 1.3-1.9 1.7-0.7 0.2-1.3 0.3-1.9 0.4-0.4-0.5 0.2-1.2-0.5-1.6-0.1-0.1-0.1-0.6 0-0.9 0.4-1.1 0.8-2.3 1.3-3.5 0.1-0.8 0.3-1.8 0.5-2.8 0.4 0 0.6-0.1 1-0.1v-0.7l0.1 0.1c0.1-0.1 0.2-0.2 0.3-0.2l-0.1-0.1c-0.1 0.1-0.2 0.2-0.2 0.3-0.7-0.5-0.4-1.2-0.1-1.8 0.3-0.8 0.2-1.4-0.2-2.1 0.4-1 0.8-1.9 1.2-3-0.4-0.1-0.7-0.3-1-0.4 0.4-0.7 0.6-1.1 0.9-1.7-0.1-0.8-0.3-1.9-0.4-2.8 0.5-0.7 0.8-1.5 1.3-1.7 0.7-0.3 0.9-0.9 1.3-1.1 0.4-1 0.8-1.9 1.3-3-0.1-0.9 0.1-2 0.7-2.9-0.4-1.8-0.3-3.5-1.3-5.2-0.3-0.1-1.1 0.3-1.5-0.8v-2.3c-0.2-0.1-0.3-0.1-0.4-0.1s-0.2-0.1-0.3-0.2v-1.7c-0.1-1.8 0.5-3.4 1.1-5 0.2-0.4 0.3-0.7 0.3-1.1 0-0.3 0.2-0.5 0.3-0.8h-0.6c0-0.6-0.1-1.1-0.1-1.7-1.2-0.4-1.4-1.2-1.4-2.3l0.1 0.1c0.1-0.1 0.2-0.2 0.3-0.2l-0.1-0.1c-0.1 0.1-0.2 0.2-0.2 0.3-0.2 0.1-0.5 0.3-0.8 0.4-0.3-0.4-0.6-0.8-0.8-1.1-0.2 0-0.4 0-0.4 0.1-0.5 0.7-1.1 1.3-1.5 2s-0.8 1.3-1.7 1.1c-0.8 1.2-1.4 2.5-2.7 3.3-0.1-0.3-0.2-0.5-0.4-0.9-1.1 0.8-2.2 1.6-3.4 2.5h-0.8c0.2-0.2 0.3-0.4 0.6-0.7-0.6 0.2-1.1 0.3-1.6 0.4 0.2-0.8 0.3-1.5 0.5-2.4 0 0.1 0.1-0.1 0.2-0.2 0.4-0.5 0.6-1.1 0.8-1.8 0.2-0.6 0.8-1.1 1.2-1.6 0.2-0.3 0.2-0.8 0.3-1.4 1.2-1 2.7-2.1 4.2-3.2 0.2 0.1 0.4 0.3 0.6 0.4h2.2c0.7-0.4 1.2-0.6 1.7-0.9 0.9-1 1.3-2.5 2.1-3.8s1.4-2.6 2.2-4.1c0.3 0.4 0.5 0.6 0.7 0.9 0.2 0 0.5 0.1 0.8 0.1 0.1 0.3 0.2 0.5 0.4 0.9 0.6-0.6 1-1 1.6-1.5 0.2 0.4 0.4 0.7 0.6 1 1.6-1.1 2.3-2.8 3.6-4.2v-1.5c0.3-0.8 0.6-1.4 1-2.2 0.5-0.2 0.7-1.1 1.5-1.6 1.6-1 3.1-1.6 5-1 2.4 0.8 3.2 1 5.4 2.4 1.2 0.7 2.6 1.4 4.1 1.2 0.8-0.1 1.5-0.1 2.3 0 2.5 0.2 5-0.4 7.5-0.4 1.4-0.8 2.9-0.2 4.3-0.6 1.3-0.4 2.5-0.9 3.7-1.3 2.2-0.7 4.3-1.5 6.5-1.6 1.6-0.8 3.1-1.7 4.8-2.1 0.4-0.1 1-0.2 1.2-0.7h0.4v0.2c0.9 0.2 1.7 0.4 2.8 0.7 0.1 0.1 0.4 0.3 0.6 0.6 0.5-0.1 1.2 0.2 1.8-0.4 0.1 0.3 0.2 0.7 0.2 1.1 0.1-0.1 0.2-0.2 0.4-0.3h1.5c0.2 0.2 0.4 0.5 0.5 0.7h1c0.6 0.4 1.2 0.8 1.7 1.1 0.9 0.7 1.6 1.7 1.8 2.8 0.2 1 0.8 1.7 1.2 2.5s0.4 1.9 1.3 2.5c0.4 1.4 1.1 2.6 1.5 4 0.1 0.1 0 0.3 0 0.5-0.9 0.2-0.8-0.6-1.2-0.9-0.4-0.4-0.9-0.6-1.4-0.9-0.3 0.7-0.4 1.4-0.2 2.2 0.1 0.7 0.3 1.4 0.5 2.1 0.6 2.1 1.9 3.9 2.6 6.1l0.9 2.7c-0.3 0.3-0.5 0.4-0.7-0.1-0.1-0.2-0.3-0.3-0.5-0.5-0.6 1.1 0 2.1 0.2 2.9 0.3 1.2 0.4 2.2-0.1 3.3-0.1 0.2 0 0.6 0 0.9-0.7-0.4-1.4-0.3-2.4-0.2 0.8 0.7 0.8 1.7 1.8 2.1 0.9 0.4 1.3 1.4 1.6 2.3 0.2 0.7 0.5 1.2 1 1.7 0.9 0.8 1.7 1.7 2.6 2.5-0.6 1-0.3 2.1-0.4 3.3-0.3 0.1-0.6 0.1-0.9 0.2 0.7 2.2 2.5 3.7 3.8 5.5v0.9c0.5 0.7 0.9 1.4 1.4 2.2-0.2 0.1-0.4 0.1-0.6 0.2l-0.6 2.7c-0.2 0-0.3 0.1-0.7 0.2 0.2 0.9 0.3 1.7 0.5 2.7 0.4 0.2 0.8 0.5 1.3 0.7 0-0.2 0.1-0.4 0.1-0.5-0.1-0.4-0.2-0.7-0.4-1.3 0.4 0.1 0.7 0.2 1.1 0.3 0-0.3 0.1-0.8 0.1-1.3h0.9c0.2 0.6 0.5 1.3 1.4 1 0.1-0.2 0.2-0.5 0.3-0.7 0.2 0 0.3 0 0.4 0.1 1.2 1.7 2.9 5 2.6 6.9-0.4 0.8-0.7 1.3-1 1.9h-1c-0.3 0.4-0.5 0.8-0.8 1.3-0.4-0.3-0.7-0.6-1-0.8h-1.2c-0.1 0.2-0.1 0.4-0.2 0.6h-1.2c0-0.1 0-0.3-0.1-0.4-1-1-1-1-1.4-2.4s-0.9-2.7-1.4-4c-0.7-0.4-1.3-0.9-1.8-1.2-1.7-0.5-3.2-0.4-4.7-0.8-1.2-0.3-2-1-2.8-1.7-1.3-1-2.6-2-4.1-2.5-1.3-0.5-2.7-1-3.9-1.6-1.6-0.8-3.2-1.8-4.7-2.9-1.1-0.9-2.2-1.7-3.7-2.3-1.3 0.4-2.1 1.7-3.1 2.6v2.2c0.7 1.1 1.5 2.2 2.2 3.3h1.2l0.7 1.4c-0.9 0.2-1.1 0.2-1.3 0.2 0-0.1-0.1-0.2-0.2-0.3l-0.1 0.1s0.1 0.1 0.3 0.2zm12-39.3c0.5 0.5 0.9 1 1.4 1.5 0.5-0.7-0.9-1.5 0-2.2-0.9-1.6-1.4-3.4-3.1-4.5-0.3 0.2-0.7 0.4-1.2 0.6 0.5 1-0.9 1.9 0 3-0.2 0-0.4 0.1-0.5 0.1-0.2 0.9 0.1 1.6 0.6 2.2 0.3 0.4 0.6 0.8 0.9 1.2 0.4 0.6 0.8 1.2 1.3 1.9 0.4-0.8 0.4-0.8-0.3-2.2 0.2-0.5 0.5-1 0.9-1.6zm-59.4 26.8c-1 0.2-1.2 1-1.7 1.7s-0.4 1.5-0.4 2.3c0 0.1 0.1 0.2 0.1 0.3h0.8c0.1-0.2 0.2-0.4 0.2-0.7 0.2 0.1 0.5 0.3 0.8 0.5 0.2-0.7 0.3-1.3 0.5-1.9 0.1-0.3 0.1-0.5 0.2-0.8 0.4-1 0.8-1.9 1.2-2.8 0-0.1-0.1-0.2-0.2-0.4-0.4 0.2-0.8 0.3-1.2 0.5 0.1 0.4-0.1 0.8-0.3 1.3zm62.9-9.9c-0.5-0.2-0.7-1-1.4-1.2-0.5 0.5-0.2 0.9 0.1 1.4 0.3 0.3 0.5 0.7 0.7 1.1 0.2 0.3 0.2 0.3 1.1 0.7-0.1-0.6-0.3-1.2-0.5-2z"/>
		<path d="m228.8 232.5c0.1-0.2 0.3-0.3 0.3-0.5 0.1-1.1 0.6-2.1 1-3.2 0-0.1 0.2-0.2 0.3-0.3 0.7 0.2 1.4 0.4 2.3 0.6 0.4-0.3 0.9-0.6 1.5-1 0.4 0.2 0.8 0.4 1.3 0.7 0.2-0.5 0.4-1.1 0.6-1.7 0.5-0.1 1.2-0.3 1.8-0.5l2-4c0-0.1-0.1-0.5 0-1 0.1-0.7 0.4-1.2 1-1.7 1.1-0.8 2.3-1.4 3.3-2.3 0.5-0.5 1.4-0.6 2.1-0.9 0.4 0.4 1.3 0.3 1.5 1.2 0.1 0.3 0.9 0.5 1.5 0.8-0.5 0.8-0.9 1.7-1.5 2.4-0.4 0.4-0.3 0.8-0.3 1.3l-0.1-0.1c-0.1 0.1-0.2 0.2-0.3 0.2l0.1 0.1c0.1-0.1 0.2-0.2 0.2-0.3h0.6c0 0.2 0.1 0.4 0.1 0.4-0.9 0.9-1.4 2.1-2.7 2.8-1.1 0.6-1.6 1.8-2 3.1-0.2 0.8-0.8 1.6-0.8 2.5 0 0.1-0.2 0.3-0.4 0.4h-1.6c0.1-0.3 0.2-0.6 0.4-1h-1.6c0.2-0.7 0.4-1.2 0.4-1.7s-0.2-1-0.4-1.6c-0.4 0.7-0.8 1.4-1.3 2.1-0.1 1.3-0.2 2.7-0.3 4.2 0.2 0.1 0.4 0.3 1 0.8-0.7 0.1-1.1 0.1-1.5 0.2-0.6 0.5-1.3 1-2 1.5-0.2 0.1-0.4 0.2-0.6 0.2-0.9 0.1-1.8 0.3-2.1 1.4 0 0.1-0.2 0.3-0.3 0.4-0.8-0.3-0.5-1.1-0.6-1.8-0.2 0.2-0.3 0.3-0.5 0.3-0.1 0.1-0.3 0.1-0.5 0.1-0.1-0.4-0.1-0.7-0.2-1.2-0.3 0.5-0.6 0.8-0.9 1.3v-3h-0.8v-1.2z"/>
		<path d="m353.3 221.5h0.6c0.2 0.4 0.4 0.9 0.6 1.3l1.5 1.5h0.8c0 0.1 0.1 0.3 0.1 0.5 0.2 0.5 0.4 0.9 0.6 1.4 0.1 0.3 0.3 0.6 0.5 0.9 0.4 0.6 0.9 1.2 1 1.9s-0.2 1.4-0.3 2.2h-2.3c-0.2 0.3-0.4 0.7-0.6 1-0.1-0.1-0.2-0.1-0.3-0.2v1.6c-0.4 0.2-0.7 0.3-1 0.5-0.8-0.5-1.4-0.9-2.2-1.4 0 0 0-0.2-0.1-0.3-1.7-1.5-2.6-3.6-3.9-5.5-0.3-0.5-0.7-1-1.1-1.5-0.7-1.2-1.1-2.7-1.1-3.8-0.7-1.2-1.4-2.2-2-3.3-0.2-0.4-0.1-1-0.2-1.5-0.2-0.3-0.5-0.6-0.9-1.1 0.7-0.1 1.1-0.2 1.6-0.2l0.7 0.7v-1.6c0.3 0 0.6-0.1 0.9-0.1 0.3-0.4 0.6-0.8 1-1.4 0 0 0.1-0.3 0-0.5-0.7-1.7-0.8-3.6-0.7-5.4 0-0.4-0.2-0.7-0.4-1.3 0.5 0.2 0.9 0.3 1.4 0.4 0-0.4 0.1-0.8 0.2-1.4 0.2-0.1 0.6-0.4 1.1-0.7 0.2 0.1 0.7 0.2 1.2 0.4 1.1 1 2.1 2.5 3.8 2.8 2.1 2.3 3.9 4.7 5.5 7.4v1.4c-0.8-0.5-1.5-1-2.2-1.5-0.7 1 0.2 1.9 0.1 2.8v2.8c-0.5 0.7-1.1 1.4-1.7 2.2-0.4-0.4-0.8-0.7-1.1-1-0.2-1.7-1.3-2.4-2.5-3.4-0.2-0.5-0.5-1.1-0.7-1.7-1.2-0.1-1.2-0.1-2.1 0.4 0.4 0.8 1.1 1.6 1.2 2.5 0.2 1.6 1.3 2.2 2.5 2.8 0.1 0.1 0.3 0.2 0.6 0.2h-0.2c0 0.2 0.1 0.5 0.1 0.7h0.2c0-0.2 0-0.5-0.2-0.7v-0.8zm-6.7-6.1h0.2v-0.7h-0.2v0.7z"/>
		<path d="m347.9 201.7c-0.9-0.4-1.1 0.4-1.6 0.6s-1.1 0.2-1.8 0.3c-0.9-0.7-1.3-2.2-3-2-1.4-0.9-1.6-2.5-2.4-3.8v-1.7c0.6-0.3 1.1-0.2 1.9 0.2-0.2-0.5-0.4-0.8-0.4-1.2s0.3-0.7 0.3-1.1c0.1-0.6 0-1.2 0-1.8 1-0.9 1.9-0.8 2.9 0.4 0.8 1 1.3 2.1 2.1 3 1.1 1.3 1.5 2.8 2 4.3 0.2 0.8 0 1.7 0 2.8z"/>
		<path d="m249.7 245c-0.5-0.5-1.3-0.4-1.3-1.3v-0.7c-0.4-2.4 0.7-4.4 2-6.3 0.5-0.7 1.1-1.4 1.7-2.1 0.2 0.2 0.3 0.3 0.5 0.4 0.6-0.1 0.9-1.2 1.9-0.6-0.1 0.4-0.2 0.9-0.4 1.5 0.1 0.1 0.3 0.1 0.6 0.3 0 0.3 0.1 0.8 0.1 1.2 0.1 0 0.2 0 0.3-0.1 0.7-0.5 1.4-1 2.1-1.6 0.4 1.3-0.2 2.6-0.8 3.8-0.3 0.7-0.7 1.3-0.5 2-0.6 0.2-1.1 0.4-1.5 0.5-0.5 0.6-0.8 1.1-1.2 1.5-0.8-0.3-1.2-0.9-1.6-1.8-0.7 1.2-1.3 2.2-1.9 3.3zm2.8-2.9v-1.1c-0.3 0.1-0.4 0.1-0.8 0.2 0.3 0.2 0.5 0.4 0.8 0.9z"/>
		<path d="m242.7 239.3c0.4 0.6 0.7 0.9 1.1 1.4 0.1 0.8 0.3 1.7 0.5 3l0.5 0.5c-0.4 1-0.9 2.1-1.4 3.2h-0.8c-0.3 0.7-0.6 1.4-0.9 2.1h-1c0.3-1.1-1.4-1.5-0.9-2.8-0.3 0.2-0.5 0.5-0.8 0.7-0.5-0.2-0.9-0.3-1.5-0.5-0.6-1.6 0.6-3.1 0.7-4.8 0.5-0.2 1-0.4 1.6-0.6 0.2 0.7 0.4 1.3 0.6 1.9h0.5c0-1.4 0.8-2.6 1.8-4.1z"/>
		<path d="m353.2 221.5c-0.1-0.1-0.2-0.2-0.3-0.2l0.1-0.1c0.1 0 0.2 0.1 0.2 0.3 0.1 0 0 0 0 0z"/>
	</g>
</g>
<g id="silhouette">
		<path d="m367.9 44.6c8.1 4.8 16.6 8.9 24.2 14.7 3.9 3 6.1 6.9 5.1 12-0.2 1.1-0.1 2.2 0.1 3.3 1.2 5.6 2.6 11.3 3.8 16.9 0.4 1.7 0.4 3.5 0.3 5.2-0.1 2.2-1.6 3.3-3.8 3.1-2.3-0.2-3.8-1.7-5.3-3.2-1.4-1.4-1.5-1.4-2.3 0.4-1.5 3.4-3.5 6.3-6.6 8.6-2.8 2-4.7 4.9-5.6 8.3-0.4 1.4-1.1 2.3-2.6 1.9-1.4-0.4-1.5 0.3-1.5 1.3 0 2.6 0.1 5.1-0.1 7.7-0.1 2 0 3.6 1.5 5.4 1.5 1.6 2.3 4.1 2.9 6.3 2.1 7.9 3.5 15.8 3.6 24 0 4.7-1.1 9-3 13.2-0.9 1.9-1.8 3.8-2.6 5.7-1.6 3.9-2.7 7.9-2.6 12.2 0.1 7.9 0.1 15.9 0.1 23.8 0 1.5-0.1 2.9-0.2 4.4-0.1 1.2 0.1 2.1 0.9 3.2 0.6 0.8 0.9 2.4 0.6 3.4-0.7 2-1.8 3.9-3 5.6-0.5 0.8-1 1.6-0.8 2.5 0.3 1.3 0.8 2.3 0.9 3.6 0.1 1.6 0.1 3.2 0 4.7-0.2 3.2-0.8 6.3-2 9.2-1.1 2.7-2.5 5.3-3.7 7.9-0.2 0.5-0.5 1.2-0.3 1.6 0.8 1.3 0.3 2.4-0.1 3.7-1.6 4.6-3.4 9.2-4.5 14s-1.7 9.8-1.9 14.7c-0.4 5.9-1.7 11.4-5.1 16.1-4.5 6.3-7 13.4-8.3 21-1.5 8.6-3.2 17.1-4.3 25.7-0.6 5.2 0.1 10.5 0.1 15.7 0 4.2 1.1 8.2 2.9 12 2.2 4.6 5.4 8.1 9.8 10.8 10.3 6.2 15.7 15.2 15.2 27.4-0.2 4.3-2.4 7.5-6.1 9.6-1.5 0.8-3.2 1.3-4.8 2-0.7 0.3-1.6 0.6-2 1.2-1.3 1.8-3.2 2.3-5.1 2-6.2-0.9-12.3-2.1-18.5-3.1-1.2-0.2-2.4-0.5-3.6-0.4-1.4 0-2.4-0.4-3.3-1.5-0.6-0.8-1.4-1.4-2.2-1.9-5.6-3.3-10.4-7.4-13.7-13.2-0.2-0.4-0.6-0.9-1-1.1-5.4-3.4-9.7-7.9-12.2-13.8-1.9-4.3-3.8-8.7-5.4-13.1-3-8.2-3.9-16.8-3.6-25.5 0.1-3.1 0.1-6.3 0.3-9.4 0.1-1.6 0.2-3.2 0.5-4.8 0.2-1.4 0.6-2.7 0.9-4 0.1-0.3 0-0.7-0.3-0.9-0.6-0.5-1.5 0.6-2 0.9-0.9 0.5-1.9 1-2.9 1.3-2 0.7-4.1 0.9-6.2 1.1-2.5 0.1-5 0.1-7.5 0.3-7.3 0.4-14.1-1.5-20.8-4.1-3.3-1.3-6.5-1.4-9.8-0.4-9 2.8-18.2 4-27.7 3.6-1.8-0.1-3.6-0.3-5.3-0.8-4.8-1.5-9.8-2.2-14.2-4.8-0.8-0.5-1.2 0.1-1.3 0.8-0.2 1.5-0.3 3-0.4 4.5-1.2 10.9-1.3 21.9-3.9 32.7-0.9 3.9-2.4 7.7-3.9 11.4-1.8 4.5-3.7 8.9-5.7 13.4-3.1 7.2-6.1 14.5-9.4 21.6-2 4.3-5.6 7.2-9.8 9.4-5.7 3-11.8 4.2-18.2 4.3-7.9 0.2-15.7 1.5-23.3 3.3-6 1.4-11.7 1.3-16.7-3-1.6-1.4-2.5-3.1-2.5-5.3 0-3.3-0.5-6.7-0.3-10 0.4-6.8 2.6-13.1 5.6-19.2 1.7-3.5 4.7-5.5 8.1-7.2 1.4-0.7 2.7-1.4 4-2.2 7.2-4.7 11.5-11.3 13.5-19.7 2.4-10.3 3.6-20.7 5.2-31.1 0.4-2.4 0.7-4.7 1.3-7.1 2-7.7 1.6-15.4 1-23.1-0.8-11.6-0.2-23.2 1.9-34.7 0.6-3 1.4-6 1.9-9.1 0.3-1.5 0.2-3.1 0.4-4.6 0.3-3 0.4-6 1.1-8.8 0.9-3.9 1.4-8 1.7-12 0.1-2 0.2-4 0.2-6.1 0-1 0-2.1 0.1-3.1 0-0.6 0.3-1.6-0.3-2-1.4-0.9-5.4 6.3-6.1 7.4-1.4 2.4-2.4 4.9-3.7 7.3-4.3 7.8-6.5 16.3-7.7 25.1-0.9 7.2-1.4 14.3-1.2 21.5 0.3 8.5 2 16.7 5 24.6 0.8 2.1 1.4 4.3 2.1 6.6 0.4 1.3 1 2.5 1.2 3.9 0.2 1.2-0.2 3-1.2 3.8-1 0.7-2.4 0.4-3.1-0.6-0.9-1.2-1.7-2.5-2.1-3.9-1.1-3.3-2.1-6.7-3.1-10-4.8-14.9-4.9-30.1-2.9-45.4 0.7-5.5 1.3-11 3.3-16.3 3.3-8.5 7-16.7 13.3-23.4 0.9-1 1.6-2.2 2.7-3 0.9-0.7 2-1.4 3.1-1.4 1.5 0 1.7-0.7 1.8-1.9 0.9-8.2 1.8-16.4 2.8-24.5 0.7-5.7 2.6-11.1 4.8-16.4 0.5-1.1 1.6-3.8 3.2-3.3 1.5 0.5 0.7 2.7 0.5 3.8-0.3 1.7-0.7 3.4-1.2 5.1-2.1 6.6-2.5 13.4-3 20.2-0.5 6.6-1.4 13.1-2 19.7-0.3 3.4-0.4 6.8-0.4 10.1 0 4-0.6 8.1-1.3 12l-1.2 6c-0.2 1.1-0.3 2.3-0.6 3.4-0.3 1.2-1.2 2.1-1.6 3.2-1 2.6-0.7 5.5-1.1 8.2-1.8 12-1.9 24.1-1.2 36.2 0.1 2.6 0.6 5.2 0.7 7.8 0.3 6.5-0.1 12.9-1.5 19.3-1.9 8.6-2.9 17.4-4.5 26.1-0.9 4.8-1.9 9.5-3.1 14.2-1.8 7.7-6.2 13.6-12.8 17.9-2.9 1.9-5.8 3.6-8.6 5.6-1.2 0.8-2.5 1.9-3.2 3.1-4.5 7.5-6.6 15.5-5.6 24.3 0.3 2.6 1.6 5.9 4.2 6.9 0.5 0.2 1 0.2 1.4-0.1 1-0.8-0.3-3.8-0.3-4.9 0.4-4.9 0.7-9.8 1.4-14.6 0.3-2 1.3-4 2.3-5.8 1.1-2.1 3-3.5 5.4-4 1.1-0.2 6.1-0.7 6.1 1.1 0 1.2-2.2 1-3.1 1.3-1.1 0.3-2.1 0.8-2.9 1.6-1.7 1.7-2.3 4.1-2.6 6.4-0.5 4-0.7 8-0.8 12.1 0 1.2 0.2 2.4 0.5 3.6 0.2 0.9 0.3 2.1 1.1 2.7 0.9 0.6 2.5 0.2 3.5 0 1.4-0.2 2.8-0.4 4.3-0.5 1.1-0.1 1.4-0.6 1-1.8-2.1-5.5-1.3-10.8 1.1-15.9 1.2-2.4 3.1-4.5 4.8-6.6 0.5-0.6 1.3-1.1 2.1-1.2 0.7-0.1 1.4 0.1 1.8 0.7 0.7 1.1-1.1 2.7-1.6 3.6-0.9 1.4-1.7 2.8-2.3 4.3-1.3 3.1-1.9 6.4-1.7 9.8 0.1 1.5 0 5 1.3 6 1.2 0.9 3.8 0.1 5.1 0 1-0.1 0.9-0.8 0.9-1.5 0-3-0.3-6 0.3-8.8 0.5-2.5 1.8-4.8 3.7-6.5 1.3-1.1 5.2-4 7-2.9 0.5 0.3 0.8 1.1 0.7 1.7-0.2 0.8-0.9 1-1.5 1.4-0.8 0.5-1.5 1.1-2.1 1.8-1.1 1.2-2 2.6-2.5 4.2-1 3.1-0.5 6.5 0.4 9.6 0.2 0.5 1.3 1.1 1.9 1 2.2-0.4 4.4-0.8 6.4-1.8 3.3-1.8 6.5-3.8 9.6-6 1.3-1 2.4-2.4 3.3-3.8 2.8-4.7 5.5-9.5 8.3-14.2 0.3-0.6 0.7-1.2 0.8-1.9 0.7-5.6 3-10.6 5.6-15.4 4.5-8.1 6.1-16.9 7.1-25.8 1.3-11.5 2.4-23.1 3.9-34.6 0.7-5.1 1.8-10.1 3.2-15.1 1.5-5.1 4.1-9.8 8.4-13.3 1.3-1 2.4-2.3 3.6-3.3 0.1-0.1 0.2-0.1 0.3-0.2 0.2-0.1 0.6-0.2 0.9 0 0.1 0.1 0.2 0.3 0.2 0.5 0 0.3 0 0.5-0.1 0.7-1 1.7-1.9 3.5-3.1 5.1-3.9 5.7-6.7 11.7-7.7 18.6-0.5 3.5-1.5 7-2.1 10.5-0.4 2-0.2 2 1.8 2.2 1.7 0.2 3.3 0.7 4.9 1.2 6.9 2.3 13.9 3.6 21.2 3.4 6-0.2 11.9-1.2 17.6-2.9 4.4-1.3 8.7-1.4 13 0.3 9.6 3.8 19.7 4.5 30 4.2 3.8-0.1 6.1-2.5 8.8-4.6 0.7-0.5 1.5-0.9 2.1-1.5 0.6-0.5 1.2-1.1 1.5-1.8 1.2-2.1 2.3-4.2 3.5-6.4l1.8-3.3c0.4-0.8 0.9-2.1 1.6-2.6 0.4-0.3 1-0.3 1.3 0 0.7 0.8-0.7 4.1-1 5.1-0.5 1.9-1.1 3.8-1.9 5.6-3.9 8.4-5.9 17.1-5.7 26.5 0.2 6-0.2 12 1 18 1.8 8.8 4.9 17.1 9.5 24.7 1.2 2 3 3.5 4.7 5.2 1.8 1.8 4 3.3 3.6 6.4-0.1 0.5 0.7 1.4 1.2 1.8 3.7 2.7 7.5 5.3 11.3 7.9 0.7 0.5 1.5 0.7 2.2 1 1.5 0.6 2 0.3 2.3-1.3 0.9-4.5-0.6-8.4-3.4-11.9-0.6-0.7-1.6-0.9-2.2-1.6-0.4-0.4-0.6-1-0.4-1.5 0.5-1.5 3.3-0.4 4.2 0.1 1.5 0.7 2.7 1.9 3.6 3.3 2.9 4 3.8 8.6 3.3 13.5-0.2 2.3-0.2 2.6 2.1 3.1 0.8 0.2 1.6 0.3 2.4 0.5 2.4 0.3 4.1-0.9 4.3-3.4 0.1-1 0.2-2.1-0.1-3.1-1-4-1.4-8.1-3.5-11.7-0.4-0.6-0.9-1.6-0.8-2.4 0.1-0.5 0.4-0.9 0.9-1 1-0.3 2.3 1.7 2.8 2.3 1 1.1 2 2.3 2.6 3.7 1.4 3 2.3 6.3 3 9.6 0.4 1.8 0 3.8-0.3 5.7-0.2 1.1 0 1.6 1.1 1.7 0.5 0.1 1 0.2 1.6 0.2 2.3 0.3 2.2 0.3 1.7-1.9-0.2-0.6 0.1-1.7 0.6-2.2 4.6-3.9 4-8.6 2-13.4-0.5-1.3-1.2-2.5-1.9-3.7-0.6-1-1.7-2.2-1.9-3.3-0.1-0.7 0.3-1.6 1-1.7 1-0.2 1.9 1 2.5 1.6 1.2 1 2.3 2.1 3.1 3.4 2.1 3.2 3.1 6.8 3.2 10.6 0 1.2 0 2.5-0.4 3.7-0.2 0.6-1.7 2.8-1.2 3.3 0.2 0.2 0.6 0.3 0.9 0.2 2.4-0.8 4-3.7 4.2-6 0.8-7.6-1-14.4-6.6-19.8-1-0.9-1.7-2-2.7-3-1.2-1.1-2.4-2.1-4.2-2.1-1 0-2.2-0.8-3-1.5-5.8-4.8-8.7-11.2-9.9-18.4-0.7-3.9-0.5-8-0.8-12-0.5-6.4 0.6-12.7 1.6-19 1.4-8.3 3.2-16.5 5-24.7 0.9-4.4 3-8.3 5.5-12 2.3-3.4 4.3-6.9 5.2-11 0.2-0.9 0.4-1.8 0.5-2.8 0.5-4.6 0.8-9.3 1.6-13.9 0.4-2 1-4 1.7-5.9 0.6-1.7 1.7-3.9 1.6-5.7 0-0.3-0.1-0.6-0.4-0.7-0.9-0.5-3.8 3-4.5 3.7-1.6 1.6-3.1 3.1-4.8 4.6-3.3 3.1-5.4 6.8-6.9 11-2.2 6.2-5.4 11.5-11 15.3-4.3 2.9-8.3 6.4-12.4 9.6-0.5 0.4-0.8 1.2-0.9 1.9-0.3 2.5-1.1 3.3-3.6 3.2-1.5 0-3.1-0.2-4.5-0.7-8.4-2.5-17.1-3.9-25.7-5.6-0.6-0.1-1.3-0.2-1.9-0.3-14.8-0.8-29.3-3.8-43.6-7.5-3.7-0.9-7.3-2.5-11-3.6-3.2-1-6.5-1.9-9.8-2.4-5.3-0.8-10.2-2.6-14.4-6-1.9-1.5-3.2-3.8-4.8-5.7-1.3-1.6-2.7-3.2-4-4.8-1.8-2.2-3.7-4.3-5.5-6.6-0.6-0.7-0.9-1.6-1.3-2.5-0.1-0.1 0-0.3 0-0.4 0-0.2 0.2-0.4 0.5-0.4 0.1 0 0.3 0.1 0.4 0.1 0.5 0.5 1 1 1.4 1.5 2 2.3 4.1 4.6 6.1 6.9 0.8 0.9 1.7 1.8 2.4 2.7 5.3 6.3 11.7 10.5 20.3 10.8 3 0.1 6.1 0.9 9 1.9 15.6 5.6 31.9 8.1 48.3 9.4 10.4 0.8 20.7 1.9 30.7 4.9 2.4 0.7 4.4 0.4 6.6-0.7 7.6-3.7 13.5-9.3 18.3-16.2 2.9-4.2 5.8-8.4 8.2-13 2.6-5 7.2-8.6 11.3-12.4 5.9-5.4 11.3-11.2 13.7-19.1 0.6-1.9 1-3.8 1.5-5.6 0.4-1.6 1.5-3.9 1.1-5.5-0.1-0.3-0.3-0.5-0.6-0.6-0.8-0.1-2.2 2.9-2.6 3.5-0.9 1.4-1.9 2.8-3.1 3.9-2.1 2.1-4.6 3.8-7.2 5-2.5 1.2-4.5 2.9-6 5.2-2.7 4.1-6.8 5.6-11.4 6.2-2.7 0.4-5.5 1.1-8.2 1.8-6.8 1.8-13.4 4.2-20.6 3.4-2-0.2-3.9-0.5-5.9-0.9-3.3-0.8-6.5-1.9-9.7-2.9-1.5-0.5-3-0.4-4.4 0.3-0.8 0.4-1.6 0.7-2.3 1.2-3.4 2.2-7 2.1-10.6 1.2-1-0.2-1.5-0.2-2.3 0.6-0.8 0.9-1.9 1.4-3 2.1-5.1 3-10.5 4-16.4 3-4.9-0.9-9.9-1.5-14.3-3.8-1.8-0.9-3.2-2.4-4.8-3.7-1.5-1.3-2.8-2.8-4.4-3.9-4.9-3.7-10.2-7.2-12.6-13.1-1.4-3.5-3.4-6.2-6.2-8.6-3-2.4-4.5-5.9-5.5-9.6-0.6-2.4-1.1-4.8-1.6-7.2-0.9-4.6-1.8-9.2-2.8-13.7-0.2-0.7-0.4-1.5-0.7-2.1-3-5.3-5.1-11-9.1-15.7-3.8-4.5-4.1-9.6-2.7-15 0.5-2.2 0.9-4.5 1-6.7 0.2-3.5 0.1-7 0-10.5-0.1-1.7-0.6-3.3-0.9-5-0.7-3.1-1.4-6.3-2-9.4-0.3-1.6-1-3-2.5-3.8-0.6-0.3-1-1-1.3-1.6-1.2-2-3-3.1-5.3-3.6-3.7-0.8-7.4-2-10.1-4.9-0.8-0.9-2.1-1.8-1.2-3.3 0.7-1.1 1.9-1 3.7 0.1 3.3 2 7 2.9 10.8 3.4 2.9 0.4 5.3-1.3 7.6-3.1 5.6-4.4 9.9-9.9 13.7-15.8 0.7-1 1.1-2.2 1.6-3.3 3.2-6.5 6.4-13 9.7-19.4 1-2 2.3-3.8 3.5-5.6 0.3-0.4 1-0.8 1.4-0.7s0.8 0.9 0.8 1.4c-0.1 1.1-0.3 2.3-0.7 3.4-3 7-6.2 13.8-9.2 20.8-2.6 6.2-6.7 11.5-11 16.5-3 3.5-7 6.3-10.6 9.3-0.8 0.6-0.8 1.1-0.5 1.9 0.8 2.8 1.6 5.7 3.3 8.2 0.6 0.9 1 2.2 1 3.3 0 2.1 0.7 4 1.6 5.8 1.6 3 1.6 6.3 1.7 9.6 0.2 5.2 0.6 10.4-0.9 15.5-0.9 3.2-0.2 6.2 2.1 8.8 4.5 5.2 7.4 11.3 10.1 17.5 1.8 4.3 2.5 9.2 3.6 13.9 0.7 2.9 1.2 5.8 1.9 8.7 0.8 3.3 2.4 6.2 5 8.5 1.4 1.3 2.6 2.7 3.8 4.1 1 1.1 1.3 2.5 0.6 3.9-0.5 1.1-0.3 2.1 0.5 2.9 1.7 1.7 3.4 3.6 5.3 5.1 2.3 1.8 4.8 3.4 7.1 5.1 1.3 1 2.8 2 3.8 3.3 2.1 2.9 4.9 4.7 8.3 5.4 3.6 0.8 7.3 1.5 11 2s7.3-0.3 10.4-2.4c2.6-1.8 5.4-1.6 8.2-1.4 3 0.2 5.6 0.2 8.2-1.8 3.1-2.4 6.8-3 10.8-1.8 6.7 2 13.6 3 20.6 2.1 4-0.5 7.9-1.9 11.8-3.3 3-1.1 6-2 9.2-2.1 3.9-0.2 7.2-1.5 9.8-4.7 1.2-1.5 3-2.7 4.7-3.6 5.3-2.9 9.5-6.8 12.4-12.2 1.7-3.1 3.8-6 5.8-8.9 0.8-1.2 0.8-2.2 0.9-3.5 0-0.6 0-1.2-0.4-1.6-1.1-1.4-2.4 1.3-3.5 1.5-1.5 0.3-2.8-0.6-3.5-1.9-1.3-2.3-1.8-5.5-2-8.1-0.7-10.3-6.5-17.3-14.3-23.2-4.8-3.6-9.8-7.2-14.6-10.8-1.6-1.2-1.9-1.3-2.7 0.5-1.2 2.7-3.2 3.7-6.1 3.9-1.8 0.1-3.7 0.7-5.4 1.4-3.5 1.5-6.9 3.3-10.5 4.8-1.9 0.8-4.1 1.5-6 1.3-8.6-1-17.2-2.2-25.8-3.5-1-0.1-2-0.8-2.7-1.5-1-1.1-1.7-0.9-2.5 0-0.7 0.8-1.5 1.5-2.2 2.3-5.9 6.7-12.8 12.2-19.9 17.6-5 3.9-10.2 7.6-15.1 11.6-2 1.7-3.7 3.9-5.2 6.1-0.7 1-0.9 2.5-1 3.8-0.4 4.9-0.7 9.8-1 14.7v0.2c-0.2 0.3-0.4 0.6-0.6 0.8-0.3 0.5-0.8 0.5-1.2 0.1-0.2-0.3-0.4-0.6-0.4-0.9-0.4-3.5-0.7-7-1-10.5-0.1-0.9 0-1.8-0.1-2.6-0.8-5.3 1.5-9.4 5.1-12.8s7.7-6.2 11.5-9.4c7.4-6.1 15.1-11.9 22.2-18.4 5.7-5.2 10.7-11.3 16.2-16.7 5.4-5.4 11.6-9.4 19.5-9.9 4.3-0.3 8.6-0.2 13-0.5 5.9-0.3 10.9 1.7 15.6 5.1 6.5 4.8 13.2 9.2 19.8 13.8 4.5 3.2 9.2 6.2 12.9 10.5 4.7 5.4 8.3 11.3 9.1 18.5 0.1 0.8 0.2 5.2 1.1 5.4 0.8 0.2 0.6-3.5 0.6-4.1 0.1-1.9 0.1-3.8 0.2-5.6 0.1-3.8 0.1-7.5 0-11.3-0.2-7.3 1.5-14.1 4.6-20.7 0.7-1.4 1.2-2.9 1.9-4.3 2.4-5.2 1.9-10.8 1.4-16.2-0.5-5.3-1.5-10.6-2.4-15.9-0.3-1.8-1-3.5-1.7-5.1-0.2-0.5-0.8-1.1-1.3-1.3-1.4-0.4-2.1-1.4-2.2-2.6-0.3-2.3-0.5-4.6-0.6-7-0.2-4.8-0.1-9.7-1.5-14.4-3-9.3-6.5-18.3-13.9-25.1-3.6-3.4-7.8-6.1-11.7-9.1-2.8-2.2-5.7-4.5-8.2-7-0.8-0.8-1.2-2.4-1.3-3.7-0.4-4.9 1.3-9 5.3-12.1 2.4-1.9 5.2-3.4 8.2-4.2 1.5-0.4 3.1-0.6 4.7-0.7 1.4 0 3.5-0.2 4.7 0.5 0.6 0.3 1 1 0.8 1.6-0.1 0.4-0.4 0.7-0.8 0.9-1.1 0.7-2.4 0.4-3.7 0.6s-2.6 0.6-3.9 1.1c-2.5 1.1-4.8 2.7-7 4.3-2 1.5-3.1 3.6-3.4 6.1-0.1 0.8-0.1 1.7-0.4 2.4-0.4 1.3 0.2 1.8 1.2 2.6 4.1 2.8 8.1 5.9 12.2 8.8 2 1.5 4.3 2.8 5.9 4.6 2.8 3 5.5 6.3 7.7 9.7 2.6 4.2 5 8.6 7 13.1 0.8 1.7 1.2 3.5 1.7 5.2 0.2 0.8 0.6 4.3 1.5 4.5 0.8 0.2 1.3-1.6 1.6-2.1 0.6-1 1.3-2 2-3 1.4-1.9 3.1-3.6 5-5.1 1.4-1.1 2.3-2.8 3.3-4.2 1-1.5 1.9-3.2 2.9-4.8 1.1-1.8 2.5-2 4-0.6 0.9 0.8 2.6 3.9 4.1 3.3 1.3-0.5 0.6-2.7 0.4-3.6-0.2-1.7-0.5-3.4-0.7-5-0.5-3.4-1-6.8-1.6-10.3-0.5-3-1.1-6.1-2-9-0.4-1.3-1.5-2.7-2.7-3.5-3.9-2.8-7.9-5.6-12.1-8.1-5.7-3.4-11.5-6.7-17.5-9.6-4.4-2.1-9-3.9-13.7-5.3-2.6-0.8-5.5-0.6-8.3-0.9-0.3 0-0.6 0.1-0.8 0.3-2.8 1.8-5.9 3.4-8.5 5.5-2.7 2.2-5.1 4.9-7.4 7.6-1.2 1.4-1.2 3.5-1.2 5.3-0.1 1.6 0 3.6-2.1 3.6-1.7 0-2.5-0.6-2.8-2.2-0.7-4.2 0-7.8 2.9-11.2 3.9-4.5 8.2-8.5 13.7-10.8 1.4-0.6 3-0.5 4.5-0.8 0.9-0.2 1.9-0.3 2.8-0.5 1.5-0.3 3.5-0.5 4.4-0.5s5.9 1.1 11.1 3c3.2 2.2 7.4 4.1 11.5 6.5z"/>
		<path d="m227.3 60.8c1.3 0.3 2.6 0.5 3.8 0.8 1.1 0.2 2.5 0.2 3.5 0.7 0.6 0.3 1 0.9 0.9 1.5-0.3 1.3-3.7 1.2-4.7 1.4-2.1 0.3-4.2 0.6-6.3 0.3-6.1-0.8-21.8-4.5-23.7-4.7-3.4-0.5-5.8 1-8.1 3.4-3.4 3.6-7.2 7-10.9 10.3-1.2 1-2.6 1.7-4.4 1.3-0.4-0.1-1.1 0.3-1.5 0.6l-9.9 9.6c-4.2 4-9.3 7.1-12.4 12.3-0.8 1.4-1.7 2.8-2.4 4.3-1.4 2.8-1.3 5.5-0.1 8.6 1 2.6 1.8 5.3 2.5 7.9 0.3 0.9 1.6 8.1 2.9 7.5 0.9-0.4 0.9-4.4 1.1-5.3 0.4-1.7 1-3.4 1.6-5.1 1.3-3.3 2.9-6.5 4.7-9.6 2.2-3.9 3.8-8.2 4.9-12.5 0.8-3.1 2.2-6 3.9-8.8 0.7-1.2 4-7.8 5.6-6.6 1.1 0.8-0.2 2.8-0.6 3.7-0.7 1.7-3.9 9.8-4.5 12.2-1.5 5.8-3.6 11.3-6.7 16.5-3.3 5.4-4.6 11.5-4.7 17.8-0.1 3.2 0 6.4 0 9.6v4.7c0 1.3 0.2 2.9-0.3 4.2-0.4 0.9-1.1 1.6-2.1 1.7-2 0.3-2.9-2.5-3.7-3.9-1.2-2.1-2.2-4.2-3-6.4-1.2-3.3-1.5-7-2.3-10.4-1.3-5.7-2.4-11.5-5-16.9-1.6-3.4-1-6.8 0.3-10 2.4-6 6.3-10.7 11.5-14.5 5.6-4.2 11.1-8.6 16.9-12.4 1.7-1.1 2.9-2.5 4.3-3.8 2.2-2 8.9-8.3 9.8-9.5 1.6-2.2 3.6-3.8 5.8-4.8 3.8-1.8 9.9-1.1 13-0.4 1.9 0.2 15.4 3.7 20.3 4.7z"/>
		<path d="m335.8 148.5c0.9 0.6 1.8 1.3 2.7 2 3.6 2.6 7.3 5 10.6 7.9 4.5 3.9 7.5 9.1 9.9 14.5 0.9 2.1 1.8 4.2 2.6 6.3 0.4 1.1 0.6 2.3 0.7 3.5s-0.1 2.6-1.5 3.2c-2 0.7-3.7 0.1-4.5-1.9-1.1-2.5-2-5.1-3.1-7.6-2.5-5.7-5.3-11.3-10.1-15.4-3.1-2.6-6.4-5-9.8-7.3-6.1-4.1-12.3-8-18.5-11.9-1.5-0.9-3.1-1.5-4.8-2-1.4-0.5-2.9-0.6-4.2-1.1-10.4-3.7-20.3-2.1-29.9 2.4-2.4 1.1-6.4 2.9-8.9 3.9-4 1.7-7.4 4.1-10.7 6.8-8.1 6.6-14.3 15.3-17.3 25.2-0.8 2.7-2.3 5.2-3.2 7.9-1.1 3.1-2 6.3-2.9 9.5-0.9 3.4-1.7 6.9-2.6 10.3-0.1 0.2-0.2 0.4-0.4 0.6-0.3 0.3-0.7 0.3-1 0-0.2-0.2-0.3-0.4-0.4-0.6-0.3-0.8-0.5-1.6-0.4-2.4 0.1-4.4 0.3-8.7 0.6-13.1 0.1-1.6 0.7-3.2 1.3-4.7 1.6-4 3.4-7.8 4.9-11.8 4.7-12.6 13.3-22 24.3-29.3 3-2 6.6-3 9.9-4.4 1.4-0.6 2.9-1.2 4.3-1.9 8.3-4.3 17.1-6.1 26.3-5.1 7.5 0.9 14.9 2.5 21.4 7.1 3.4 2.4 7 4.4 10.6 6.5 0.2 0.1 0.6 0.3 0.9 0.4 0.5 0.2 0.8 0.3 0.8 0.3-0.4 0.3 0.8 1.1 2.4 2.2z"/>
		<path d="m164.7 231.2l0.3-1.8c0.1-0.7 0.1-1.4-0.1-2-0.5-1.3-1-2.6-1.8-3.8-2.7-4.5-3.6-9.5-3.6-14.6 0.1-8-0.1-16 0.5-24 0.4-5.5 1.3-11.1 3-16.3 1.3-3.9 4-7.3 6.4-10.8 3-4.3 7.1-7.4 11.4-10.3 1-0.7 2.2-1.9 3.4-0.5 1.1 1.3 0.1 2.4-0.9 3.3-1.4 1.3-3 2.4-4.4 3.7-4.9 4.5-9.2 9.5-11.4 15.7-1.8 5.2-2.5 10.8-3 16.3-0.5 6.2-0.1 12.5-0.3 18.7-0.4 9.6 3.4 17.7 9.2 25.1 3.7 4.7 7.8 9.1 12.4 13 1 0.8 1.8 1.8 2.4 2.9 0.3 0.6 0.4 1.7 0 2.2-0.3 0.4-1.4 0.6-2 0.4-1.6-0.6-3.2-1.4-4.7-2.3-5.3-3.4-9-8.4-12.8-13.3-0.2-0.3-0.4-0.6-0.6-0.8-0.1-0.1-0.2-0.1-0.3-0.2-0.2-0.1-0.4 0-0.5 0.2-0.1 0.1-0.1 0.3-0.1 0.4v0.5c1 4.1 2.1 8.3 4.9 11.6 4.9 5.8 9.9 11.6 15 17.3 1.9 2.1 4.2 4.1 6.5 5.8 2.5 1.9 5.2 3.5 8 5.1 2.4 1.4 5 2.4 7.6 3.6 0.2 0.1 0.4 0.1 0.7 0.2 2.2 0.7 3.1 1.6 2.9 3-0.1 1.4-1.5 2.3-3.7 2.5-2.8 0.2-5.3-0.7-7.6-2.2-4.2-2.7-8.6-5.3-12.5-8.4-2.5-2-4.4-4.8-6.4-7.4-4.5-5.7-8.9-11.4-13.2-17.2-1.1-1.4-1.9-3.1-2.5-4.8-0.5-1.5-1-3-1.4-4.5-0.7-2.5-1.2-4.5-1.2-4.6 0 0.1 0.2-0.7 0.4-1.7z"/>
		<path d="m331.7 139.8c0-2.2 0.5-4.5 1.6-6.8 4.4-9.3 10.7-11.5 21.7-10.9 2.6 0.1 4.9 1.3 6.7 3.2 2 2.1 3.9 4.3 5.8 6.5 0.6 0.7 1 1.6 1.1 2.5s0.1 2.4-0.4 2.8c-1.8 1.2-1.4 3-1.7 4.7-0.7 4-2.5 7.5-5.8 10.1-3.2 2.5-6.8 2.6-10.6 0.3-2.1-1.3-3.9-3.1-6-4.5-1.1-0.8-2.3-1.3-3.5-1.8-1.1-0.4-2.2-0.8-2.2-2.1s1.1-1.7 2.1-1.9c1.2-0.2 1.4-0.7 0.7-1.8-1.2-1.7-1-3.7-0.7-5.6 0.1-0.7 0.5-1.5 0.6-2.2 0-0.2-0.1-0.5-0.3-0.6-0.8-0.4-4 6.7-4.4 7.6-0.6 1.5-0.5 3.2-0.4 4.9 0 1.2-0.1 1.9-0.5 2.3-0.7 0.7-1.5 0.5-1.9 0.4-0.2-0.1-0.3-0.2-0.4-0.4-0.5-1-1.5-3.5-1.5-6.7z"/>
		<path d="m221.3 165.7c-0.9-0.2-1.8-0.4-2.7-0.7-2.4-0.8-4.7-2-7.1-3-2-0.9-3.5-2.3-4-4.5-0.3-1-0.7-2-1.1-2.9-0.8-2.2-0.3-4.1 1.8-5 4-1.7 7.3-4.3 10.5-7.1 3.9-3.3 8.1-4 12.7-1.9 4.8 2.2 8.9 5.1 10.1 10.8 0.1 0.5 0.3 1 0.2 1.4-0.2 0.6-0.6 1.5-1 1.6-0.6 0.1-1.5-0.2-1.9-0.7-0.6-0.6-0.9-1.5-1.4-2.1-0.7-0.8-1.6-1.4-2.4-2.1-0.6-0.5-1.5-1.6-2.4-1.4-0.5 0.1 0.9 4.6 1.3 5.1 0.7 1 0.8 0.9 1.2 0.9 2.1 0 2.8 0.9 2.1 3-1.2 3.5-2.6 5.7-4.8 7.1-4 2.6-9.6 1.8-11.1 1.5z"/>
		<path d="m221.2 126.5c6.7 0.1 12-0.8 16.9-3.4 5.3-2.8 10.9-3.4 16.8-1.8 2.6 0.7 3.9 2.7 4.9 4.8 0.9 1.9-0.8 3.9-3 3.7-0.6 0-1.1-0.3-1.7-0.4-3-0.7-6-1.5-9-1.9-1.4-0.2-2.9 0.5-4.4 1-0.8 0.2-1.6 0.7-2.4 1.1-6 3.6-12.9 5.1-19.3 7.7-5 2-9.6 4.4-13.4 8.4-1.7 1.8-3.6 3.7-6.6 3.5-0.5 0-1 0.7-1.6 0.9-0.9 0.3-2.1 0.8-2.7 0.4-0.7-0.4-1.1-1.6-1.1-2.5 0-1.1 0.5-2.3 0.9-3.3 3.6-7.9 9.8-13.2 17.5-16.8 3.1-1.5 6.2-1.5 8.2-1.4z"/>
		<path d="m338.4 248.4c-5-1.9-12.6-8.1-14.8-9.3-5.1-2.6-10.4-5-15.6-7.6-2.5-1.2-5.1-1.7-8-1.7-1.7 0-3-0.4-4.6 1-7.7 6.5-14.3 14.4-21.1 21.9-1.8 2-4.1 6.7-6.4 7.8-6.9 3.2-2.3-5.5-0.4-7.5 4.9-5.2 9.9-10.4 15.2-15.2 4.2-3.9 11.9-6.8 14.2-12.2 1.4-3.3 0.2-8.8 0.1-12.3 0-4.2-2.2-14.1 0.5-17.5 2.8-3.6 2.3 1.9 2.3 4.4 0.2 6.9 0.2 14 1.9 20.7 1.3 5.4 6.7 6.2 11.2 7.4 5.6 1.6 10.9 4 16 6.8 2.7 1.5 17.9 8.7 13.5 13.2-0.8 0.9-2.2 0.8-4 0.1z"/>
		<path d="m310.5 52.5c-0.9 1.1-3.3 1.4-4.6 1.5-2 0.2-3.9 0.4-5.9 0.6-3.8 0.4-7.7 0.7-11.5 1-7 0.5-14.1 1-21.1 1.3-7.9 0.4-15.4 2.4-22.6 5.7-0.8 0.4-1.7 0.7-2.6 1-1.2 0.4-2.2-0.1-2.8-1.2-0.6-1.3 0.3-1.9 1.2-2.5 8.2-5.6 17.3-8.3 27.2-8.4 10.4-0.1 20.7-0.7 31-2.4 2.2-0.4 4.5-0.3 6.8-0.3 1.6 0 4.2-0.4 5.1 1.4 0.4 1 0.3 1.8-0.2 2.3z"/>
		<path d="m327.7 117.7c0.9 0.2 1.8 0.3 2.7 0.5 2.9 0.4 5.6 0 8-2.1 1.6-1.4 3.4-2.6 5.3-3.7 7.4-4.4 14.6-3.3 21.6 1 0.6 0.4 1.1 1 1.7 1.5 1 0.9 0.8 1.8 0.2 2.8s-1.5 1.3-2.5 1c-0.8-0.3-1.6-0.6-2.4-1.1-7.3-4.5-14.2-3.8-20.4 1.9-5.4 4.9-11.2 3.8-17.2 1.7-1.1-0.4-1.8-1.4-1.4-2.5 0.1-0.3 0.5-0.6 0.8-0.8 0.5-0.5 2.2-0.5 3.6-0.2z"/>
		<path d="m214.2 69.2c1.1 0.3 2.1 0.7 3.1 1.2 3.6 1.7 6 4.4 6.6 8.4 0.1 0.9-0.2 2.4-0.9 2.7-0.8 0.4-2.1 0-3-0.4-0.7-0.3-1.4-1.1-1.8-1.8-1.7-2.9-4.4-4.4-7.6-4.9-4.7-0.8-9.5-1.7-14.3-0.6-2.9 0.7-5.6 2.2-8.4 3.3-0.7 0.3-1.3 0.8-2 1.1-0.2 0.1-0.4 0-0.7-0.1-0.4-0.1-0.6-0.5-0.5-0.9 0.1-0.2 0.1-0.5 0.3-0.6 3.1-2.6 6.2-5.4 9.6-7.1 2.3-1.2 5.2-1.6 8-1.7 4.7 0 9.9 0.9 11.6 1.4z"/>
		<path d="m312.8 119.3c-2.1-0.1-2.9-0.8-3.1-2.9-0.6-5.1 1-8.1 5.5-10.4 5.3-2.7 11-3.9 16.8-4.7 0.9-0.1 1.9 0.1 2.7 0.4 0.6 0.2 1.5 0.7 1.5 1.1 0 0.6-0.4 1.6-0.9 1.9-2.2 1-4.4 2.2-6.8 2.6-4.1 0.6-7.8 2-11.2 4.1-2.1 1.3-2.2 1.6-1.8 4 0.1 0.4 0.1 0.8 0.2 1.2 0.1 2-0.7 2.8-2.9 2.7z"/>
</g>
</svg>
